<svg width="157" height="80" viewBox="0 0 157 80" fill="none" xmlns="http://www.w3.org/2000/svg">
<g clip-path="url(#clip0_163_9634)">
<mask id="mask0_163_9634" style="mask-type:luminance" maskUnits="userSpaceOnUse" x="-1" y="0" width="159" height="80">
<path d="M157.627 0H-0.397827V80H157.627V0Z" fill="white"/>
</mask>
<g mask="url(#mask0_163_9634)">
<mask id="mask1_163_9634" style="mask-type:luminance" maskUnits="userSpaceOnUse" x="-1" y="0" width="159" height="81">
<path d="M157.623 0.00439453H-0.397827V80.0741H157.623V0.00439453Z" fill="white"/>
</mask>
<g mask="url(#mask1_163_9634)">
<mask id="mask2_163_9634" style="mask-type:luminance" maskUnits="userSpaceOnUse" x="0" y="0" width="158" height="80">
<path d="M157.39 0.401855H0V79.9244H157.39V0.401855Z" fill="white"/>
</mask>
<g mask="url(#mask2_163_9634)">
<path d="M131.99 0.447847H131.388V8.36777C132.797 8.35888 134.207 8.47454 135.598 8.70438C136.594 8.8497 137.531 9.2649 138.306 9.90401C139.019 10.5105 139.543 11.3083 139.809 12.2039C140.159 13.3902 140.313 14.621 140.263 15.8532V27.6553C140.263 30.922 140.711 33.5585 141.616 35.4729C142.573 37.5088 144.151 39.1874 146.125 40.2714C144.16 41.3865 142.582 43.0799 141.616 45.1203C140.711 47.0747 140.263 49.6786 140.263 52.9364V64.7029C140.313 65.9188 140.161 67.1348 139.809 68.3018C139.529 69.1782 139.012 69.9596 138.306 70.5572C137.512 71.1667 136.583 71.5774 135.598 71.7554C134.208 71.9867 132.797 72.0994 131.388 72.0934V79.9096C134.488 79.9985 137.59 79.6753 140.61 78.9502C142.693 78.4801 144.611 77.4703 146.174 76.0215C147.561 74.6929 148.533 72.9935 148.971 71.1281C149.522 68.8994 149.774 66.6084 149.724 64.3129V52.0823C149.682 50.0983 150.339 48.1602 151.577 46.6106C152.832 45.0269 154.788 44.2603 157.392 44.2603V36.5376C154.737 36.5376 152.786 35.722 151.577 34.1872C150.339 32.5976 149.687 30.6343 149.724 28.6221V16.3811C149.752 14.0708 149.494 11.7709 148.971 9.52143C148.538 7.63228 147.581 5.90475 146.213 4.52866C144.688 3.03098 142.783 1.97074 140.701 1.45767C138.053 0.753315 135.332 0.398913 132.593 0.403362H131.759M16.6913 1.45619C14.6208 1.99298 12.7204 3.04729 11.1764 4.52718C9.82757 5.9181 8.87513 7.63969 8.42109 9.51995C7.87093 11.765 7.61951 14.0693 7.66831 16.3796V28.4249C7.72008 30.4401 7.06343 32.4108 5.81224 33.99C4.60838 35.5782 2.60442 36.3448 0 36.3448V44.1164C2.6547 44.1164 4.60838 44.932 5.81372 46.4697C7.05603 48.0178 7.71268 49.9544 7.66979 51.9385V64.2225C7.61803 66.5164 7.87093 68.8089 8.42257 71.0377C8.89288 72.8912 9.8601 74.5832 11.2178 75.9311C12.7825 77.3798 14.7022 78.3896 16.783 78.8597C19.8015 79.5863 22.9029 79.9081 26.0072 79.8176V71.9926C24.5963 72 23.1868 71.8873 21.7952 71.6575C20.8013 71.5122 19.8651 71.0984 19.0887 70.4593C18.3759 69.8706 17.8538 69.0862 17.5846 68.201C17.2341 67.0339 17.0803 65.8195 17.1321 64.6035V52.8045C17.1321 49.5407 16.681 46.9976 15.7788 44.9883C14.8382 42.9287 13.2558 41.2293 11.2681 40.1409C13.2217 39.0124 14.7939 37.3235 15.7788 35.2949C16.681 33.3405 17.1321 30.7351 17.1321 27.4225V15.7554C17.0803 14.5231 17.2326 13.2908 17.5846 12.1105C17.8627 11.2193 18.3847 10.4215 19.0887 9.81059C19.8829 9.19817 20.8102 8.78446 21.7952 8.60651C23.1868 8.37815 24.5963 8.26546 26.0072 8.27435V0.458227H24.5031C21.7611 0.44933 19.0295 0.803732 16.3808 1.51254L16.6913 1.45619ZM68.0713 9.51995V12.3478H74.6377C74.0358 13.1648 73.4383 13.884 72.7846 14.7515C72.1354 15.6145 71.4772 16.4271 70.8295 17.342C70.1758 18.205 69.5739 19.1155 68.9719 19.9785C68.3744 20.846 67.4693 22.3778 67.4693 22.3778V24.2536H79.2979V21.4213H71.8854C72.44 20.5583 73.0331 19.6938 73.6868 18.7329C74.3405 17.818 75.0415 16.9075 75.6937 16.0445C76.3932 15.18 77.0469 14.3689 77.6962 13.6453C78.2981 12.9261 78.9001 12.3018 79.3541 11.8213V9.51995H68.0713ZM62.6095 9.51995C62.3063 10.3845 62.0076 11.2934 61.6571 12.2543C61.3066 13.2627 60.9058 14.2102 60.5553 15.18C60.2003 16.1513 59.8498 17.1033 59.5008 17.9707C59.2346 18.7596 58.9166 19.5292 58.5483 20.2766C58.2496 19.6508 57.9464 18.8338 57.5959 17.9707C57.2469 17.0603 56.8964 16.1498 56.5414 15.18C56.1436 14.2191 55.7901 13.2108 55.4263 12.2543C55.0758 11.246 54.7253 10.337 54.4739 9.51995H50.6804C51.0294 10.4304 51.4317 11.4758 51.8325 12.6844C52.285 13.884 52.7849 15.134 53.3351 16.436C53.8956 17.7335 54.4886 19.0265 55.0388 20.3744C55.6407 21.6675 56.1968 22.965 56.8461 24.2106V24.2521H60.2018C60.7993 23.0065 61.4057 21.755 62.0032 20.416C62.6051 19.0725 63.1552 17.775 63.661 16.4775C64.2201 15.1845 64.6593 13.9344 65.1637 12.7392C65.6162 11.5352 66.0037 10.4808 66.3675 9.51847L62.6095 9.51995ZM36.694 9.51995V12.3478H41.4059V24.2521H44.9643V12.3492H49.126V9.51995H36.694ZM125.417 27.6805C124.213 27.676 123.018 27.9177 121.912 28.3937C120.875 28.8697 119.919 29.4851 119.055 30.2176L121.109 33.0499C121.267 32.8497 121.454 32.6718 121.664 32.5235C121.962 32.2847 122.285 32.0756 122.621 31.8977C123.018 31.6604 123.424 31.5151 123.821 31.3238C124.274 31.1741 124.744 31.091 125.216 31.0807C125.822 31.048 126.424 31.2156 126.924 31.5611C127.171 31.7613 127.368 32.0193 127.489 32.307C127.61 32.6021 127.656 32.9194 127.624 33.2352C127.619 33.603 127.535 33.9633 127.377 34.294C127.219 34.6914 126.979 35.0503 126.671 35.3483C126.345 35.725 125.995 36.0779 125.621 36.4026C125.216 36.7852 124.818 37.1707 124.366 37.6037C123.81 38.1791 123.162 38.658 122.61 39.2334C122.03 39.7479 121.508 40.3277 121.054 40.9624C120.58 41.5763 120.191 42.2554 119.902 42.9776C119.623 43.7457 119.487 44.5598 119.501 45.3783V46.0486C119.497 46.2903 119.512 46.5305 119.553 46.7678H132.537V43.3928H124.165C124.28 43.1437 124.412 42.9035 124.565 42.6751C124.817 42.3963 125.064 42.0968 125.367 41.7617C125.661 41.4176 125.979 41.0973 126.321 40.8022C126.643 40.5398 126.946 40.2506 127.22 39.9392C127.781 39.4588 128.276 38.9309 128.878 38.403C129.438 37.8766 129.928 37.2864 130.432 36.7288C130.898 36.1891 131.272 35.5722 131.534 34.9064C131.796 34.2658 131.935 33.5822 131.935 32.8942C131.948 32.1528 131.808 31.4187 131.534 30.7322C131.296 30.0738 130.88 29.4955 130.33 29.0566C129.728 28.5672 129.027 28.2069 128.276 28.0022C127.393 27.7502 126.484 27.6197 125.568 27.6197C125.62 27.7131 125.518 27.7131 125.419 27.7131M100.008 39.7035C97.9814 40.562 96.143 41.8002 94.5931 43.3513C93.0772 44.8712 91.9133 46.704 91.1856 48.7222C90.387 50.8234 89.9773 53.0521 89.9818 55.3001C89.9315 57.5985 90.285 59.8881 91.0318 62.0634C91.6441 64.0564 92.7089 65.8788 94.142 67.3898C95.6727 68.972 97.5392 70.185 99.6067 70.9413C102.137 71.8933 104.824 72.3485 107.523 72.2847C109.372 72.2936 111.221 72.135 113.04 71.8073C114.46 71.5255 115.85 71.1251 117.2 70.6076L115.851 63.1222C114.674 63.6011 113.442 63.9392 112.187 64.1305C110.959 64.3203 109.721 64.4137 108.48 64.4093C105.268 64.4093 102.967 63.5922 101.661 62.0086C100.358 60.3744 99.7058 58.1694 99.7058 55.2408C99.7058 52.5079 100.407 50.2999 101.76 48.6688C103.155 46.9946 105.265 46.1731 108.077 46.1731C109.276 46.1554 110.47 46.2829 111.636 46.5542C112.632 46.747 113.602 47.0362 114.541 47.4173L116.501 40.1587C113.556 38.9516 110.404 38.3318 107.226 38.3363H106.975C104.585 38.3066 102.213 38.7633 100.006 39.6782M79.8525 28.7615C80.3065 31.5937 80.6556 34.7581 81.0564 38.2532C81.4054 41.7572 81.7574 45.405 82.0088 49.1403C82.2617 52.932 82.5693 56.7222 82.7616 60.5138C83.013 64.304 83.1624 67.9029 83.3635 71.2141H72.7861C72.6885 67.2816 72.4829 63.0569 72.338 58.4512C72.1324 53.8454 71.8337 49.1878 71.4329 44.5346C70.6816 46.1168 69.8785 47.9437 68.9778 49.9085C68.123 51.8629 67.1706 53.844 66.3675 55.8102C65.5319 57.7809 64.6638 59.6508 63.8518 61.4747C63.0532 63.2497 62.3477 64.7859 61.7976 66.0805H55.1882C54.5907 64.7859 53.937 63.2897 53.1339 61.4747C52.3323 59.6997 51.482 57.7809 50.6183 55.8102C49.759 53.8395 48.8731 51.891 48.0242 49.9366C47.1694 47.9837 46.316 46.1465 45.5647 44.5628C45.1654 49.2679 44.8637 53.8736 44.6626 58.4794C44.4614 63.0851 44.3135 67.3098 44.213 71.2423H33.5912C33.7421 67.8925 33.9935 64.2847 34.1917 60.542C34.4431 56.7503 34.6915 52.9127 34.943 49.1685C35.1944 45.3769 35.5464 41.732 35.8969 38.2814C36.2474 34.7789 36.6482 31.616 37.0993 28.7896H46.6236C47.3749 30.1331 48.2801 31.8132 49.2783 33.7809C50.2825 35.7932 51.3326 37.9077 52.4388 40.2017C53.5406 42.4972 54.5951 44.8549 55.6969 47.3046C56.8121 49.7053 57.8015 52.0052 58.7022 54.1183C59.6073 52.0052 60.6115 49.7053 61.7133 47.3046C62.8107 44.9038 63.8651 42.5579 64.9714 40.2017C66.0732 37.8988 67.0759 35.7353 68.126 33.7809C69.1302 31.7672 70.0308 30.1331 70.7866 28.7896L79.8525 28.7615Z" fill="black"/>
</g>
</g>
</g>
</g>
<defs>
<clipPath id="clip0_163_9634">
<rect width="157" height="80" fill="white"/>
</clipPath>
</defs>
</svg>
